<svg xmlns="http://www.w3.org/2000/svg" xmlns:xlink="http://www.w3.org/1999/xlink" width="254.725" height="52.562" viewBox="0 0 254.725 52.562">
  <defs>
    <clipPath id="clip-path">
      <rect id="Rechteck_2" data-name="Rechteck 2" width="254.011" height="28.087" fill="none"/>
    </clipPath>
  </defs>
  <g id="Gruppe_344" data-name="Gruppe 344" transform="translate(-288 -3234.286)">
    <path id="Pfad_176" data-name="Pfad 176" d="M4.95-2.3a3.683,3.683,0,0,1-2.725-.98,3.7,3.7,0,0,1-.98-2.738,8.216,8.216,0,0,1,.249-2.058,6.847,6.847,0,0,1,.717-1.765,5.592,5.592,0,0,1,1.125-1.377A4.835,4.835,0,0,1,4.8-12.111a4.813,4.813,0,0,1,1.748-.313,6.987,6.987,0,0,1,1.556.155,7.2,7.2,0,0,1,1.287.424l-.438,1a7.525,7.525,0,0,0-1.118-.4,4.884,4.884,0,0,0-1.3-.165,3.443,3.443,0,0,0-1.613.387,3.955,3.955,0,0,0-1.3,1.1,5.371,5.371,0,0,0-.866,1.687,7.045,7.045,0,0,0-.31,2.145,3.44,3.44,0,0,0,.286,1.438,2.223,2.223,0,0,0,.866.99,2.723,2.723,0,0,0,1.462.36,5.676,5.676,0,0,0,1.01-.084,6.1,6.1,0,0,0,.795-.192l.653-3H5.5l.216-1H8.877L7.839-2.819a9.368,9.368,0,0,1-1.33.374A7.755,7.755,0,0,1,4.95-2.3ZM10-2.435l1.569-7.382h.916L12.312-8.39h.067q.283-.384.606-.744a2.816,2.816,0,0,1,.738-.589,1.937,1.937,0,0,1,.953-.229,3.661,3.661,0,0,1,.411.024,2.271,2.271,0,0,1,.391.077l-.242,1a3.536,3.536,0,0,0-.354-.061,3.025,3.025,0,0,0-.354-.02,1.8,1.8,0,0,0-.95.266,2.921,2.921,0,0,0-.785.711,4.607,4.607,0,0,0-.586.99,5.781,5.781,0,0,0-.36,1.111l-.721,3.415Zm8.46.108A2.921,2.921,0,0,1,17-2.674a2.323,2.323,0,0,1-.94-.983,3.257,3.257,0,0,1-.327-1.505,6.244,6.244,0,0,1,.155-1.384,5.744,5.744,0,0,1,.458-1.293A4.345,4.345,0,0,1,17.1-8.918a3.316,3.316,0,0,1,1.034-.734,3.125,3.125,0,0,1,1.307-.266,2.931,2.931,0,0,1,1.472.347,2.324,2.324,0,0,1,.936.987,3.294,3.294,0,0,1,.327,1.516A6.27,6.27,0,0,1,22.021-5.7a5.741,5.741,0,0,1-.451,1.29,4.275,4.275,0,0,1-.748,1.078,3.351,3.351,0,0,1-1.037.738A3.148,3.148,0,0,1,18.462-2.327Zm.067-.93a1.865,1.865,0,0,0,.795-.175,2.2,2.2,0,0,0,.687-.509,3.148,3.148,0,0,0,.535-.815A4.855,4.855,0,0,0,20.9-5.85,6.772,6.772,0,0,0,21.021-7.2a2.386,2.386,0,0,0-.155-.849,1.516,1.516,0,0,0-.5-.677,1.457,1.457,0,0,0-.916-.266,1.964,1.964,0,0,0-.872.2,2.306,2.306,0,0,0-.717.552,3.311,3.311,0,0,0-.535.842,5.005,5.005,0,0,0-.337,1.064,6.1,6.1,0,0,0-.118,1.219A2,2,0,0,0,17.3-3.745,1.549,1.549,0,0,0,18.529-3.257Zm5.4.822-.323-7.382h1.1l.128,4.075q.02.734,0,1.32t-.044.977h.047q.108-.283.259-.657t.317-.751q.165-.377.306-.68L27.75-9.818h1.2l.269,4.089q.013.505.027,1.142t0,1.142h.047q.115-.337.269-.751t.347-.879q.192-.465.4-.95l1.711-3.792h1.185L29.778-2.435H28.444l-.249-4.149q-.02-.35-.024-.68t0-.68q0-.35,0-.761h-.054q-.121.33-.239.62t-.263.613q-.145.323-.354.768l-2.021,4.27ZM35.186-2.3a2.03,2.03,0,0,1-1.223-.354,1.4,1.4,0,0,1-.488-1.216,4.2,4.2,0,0,1,.027-.455,4.392,4.392,0,0,1,.088-.509l.869-4.129H33.321l.108-.519,1.226-.472.808-1.563h.667l-.37,1.7h1.9l-.175.855H35.591L34.715-4.82q-.047.189-.084.4A2.428,2.428,0,0,0,34.594-4a.89.89,0,0,0,.175.562.7.7,0,0,0,.586.226,2.452,2.452,0,0,0,.488-.047,4.238,4.238,0,0,0,.5-.135v.862a2.56,2.56,0,0,1-.509.158A2.9,2.9,0,0,1,35.186-2.3Zm2.445-.135,2.223-10.481h1.118l-.593,2.721q-.054.29-.131.6t-.158.613q-.081.306-.162.6H40a6.1,6.1,0,0,1,.623-.714,3.285,3.285,0,0,1,.842-.6,2.385,2.385,0,0,1,1.088-.242,2.185,2.185,0,0,1,.994.209,1.466,1.466,0,0,1,.64.623,2.157,2.157,0,0,1,.226,1.041,3.652,3.652,0,0,1-.04.535q-.04.273-.1.569L43.3-2.435H42.171l.983-4.648q.067-.3.094-.519a3.09,3.09,0,0,0,.027-.377,1.089,1.089,0,0,0-.246-.761,1.015,1.015,0,0,0-.785-.269,2.041,2.041,0,0,0-1.061.34A3.317,3.317,0,0,0,40.161-7.6a5.746,5.746,0,0,0-.717,1.91l-.687,3.253Zm11.72,0,2.095-9.848h1.118L50.47-2.435Zm3.5,0,1.583-7.416h.99L55.252-8.43h.013a6.123,6.123,0,0,1,.616-.711,3.306,3.306,0,0,1,.842-.606,2.373,2.373,0,0,1,1.095-.246,2.194,2.194,0,0,1,1.017.219,1.533,1.533,0,0,1,.653.633,2.039,2.039,0,0,1,.229,1,4.248,4.248,0,0,1-.047.626q-.047.317-.1.566l-.983,4.513H57.394l1-4.661q.061-.3.1-.519a2.393,2.393,0,0,0,.037-.4.938.938,0,0,0-.256-.714,1.058,1.058,0,0,0-.754-.242,1.987,1.987,0,0,0-1.037.337,3.317,3.317,0,0,0-1.01,1.061,5.807,5.807,0,0,0-.721,1.889l-.694,3.253Zm9.154,0-.889-7.382h1.132l.451,4.25q.04.357.074.808t.057.849q.024.4.024.6h.04q.148-.33.347-.751t.4-.835q.2-.414.357-.711l2.277-4.21h1.2L63.456-2.435Zm8.15.135a2.894,2.894,0,0,1-1.428-.333,2.238,2.238,0,0,1-.919-.956,3.23,3.23,0,0,1-.32-1.492,6.106,6.106,0,0,1,.259-1.761,5.556,5.556,0,0,1,.744-1.569,3.854,3.854,0,0,1,1.169-1.121A2.881,2.881,0,0,1,71.2-9.952a2.3,2.3,0,0,1,1.542.455,1.566,1.566,0,0,1,.525,1.249A2.1,2.1,0,0,1,73-7.218a2.315,2.315,0,0,1-.795.818,4.281,4.281,0,0,1-1.354.539,8.567,8.567,0,0,1-1.937.192h-.256q-.013.121-.024.269t-.01.276a2.067,2.067,0,0,0,.431,1.391,1.612,1.612,0,0,0,1.293.5,3.293,3.293,0,0,0,1.007-.152,7.734,7.734,0,0,0,.994-.4v.963a7.068,7.068,0,0,1-1,.374A4.353,4.353,0,0,1,70.158-2.3ZM68.825-6.584h.162a7.7,7.7,0,0,0,1.583-.152,2.753,2.753,0,0,0,1.159-.5,1.122,1.122,0,0,0,.438-.926.816.816,0,0,0-.256-.62,1.1,1.1,0,0,0-.781-.242,1.694,1.694,0,0,0-.916.286,2.837,2.837,0,0,0-.818.832A4.286,4.286,0,0,0,68.825-6.584ZM75.83-2.3a4.641,4.641,0,0,1-1.182-.135,4.1,4.1,0,0,1-.886-.337V-3.809a4.766,4.766,0,0,0,.906.4,3.449,3.449,0,0,0,1.128.189,2.543,2.543,0,0,0,.953-.155,1.254,1.254,0,0,0,.573-.428,1.078,1.078,0,0,0,.192-.637.973.973,0,0,0-.125-.5,1.424,1.424,0,0,0-.4-.414,8.157,8.157,0,0,0-.744-.465,5.8,5.8,0,0,1-.876-.586,2.143,2.143,0,0,1-.542-.65,1.754,1.754,0,0,1-.185-.825,1.933,1.933,0,0,1,.31-1.1A2.028,2.028,0,0,1,75.82-9.7a3.153,3.153,0,0,1,1.317-.256,4.754,4.754,0,0,1,1.233.152,5.757,5.757,0,0,1,.977.347l-.364.9a5.991,5.991,0,0,0-.8-.31,3.5,3.5,0,0,0-1.044-.141,1.6,1.6,0,0,0-1.007.29.937.937,0,0,0-.374.781.934.934,0,0,0,.111.458,1.286,1.286,0,0,0,.387.4,7.593,7.593,0,0,0,.754.461,8.619,8.619,0,0,1,.839.549,2.276,2.276,0,0,1,.593.64,1.677,1.677,0,0,1,.219.886,2.112,2.112,0,0,1-.344,1.223,2.118,2.118,0,0,1-.98.761A3.978,3.978,0,0,1,75.83-2.3Zm6.291,0A2.03,2.03,0,0,1,80.9-2.654,1.4,1.4,0,0,1,80.41-3.87a4.2,4.2,0,0,1,.027-.455,4.391,4.391,0,0,1,.088-.509l.869-4.129H80.255l.108-.519,1.226-.472.808-1.563h.667l-.37,1.7h1.9l-.175.855H82.525L81.649-4.82q-.047.189-.084.4A2.428,2.428,0,0,0,81.528-4a.89.89,0,0,0,.175.562.7.7,0,0,0,.586.226,2.451,2.451,0,0,0,.488-.047,4.238,4.238,0,0,0,.5-.135v.862a2.56,2.56,0,0,1-.509.158A2.9,2.9,0,0,1,82.121-2.3Zm5.456-.027a2.921,2.921,0,0,1-1.462-.347,2.323,2.323,0,0,1-.94-.983,3.257,3.257,0,0,1-.327-1.505A6.244,6.244,0,0,1,85-6.547a5.745,5.745,0,0,1,.458-1.293,4.345,4.345,0,0,1,.751-1.078,3.316,3.316,0,0,1,1.034-.734,3.125,3.125,0,0,1,1.307-.266,2.931,2.931,0,0,1,1.472.347,2.324,2.324,0,0,1,.936.987,3.294,3.294,0,0,1,.327,1.516A6.27,6.27,0,0,1,91.137-5.7a5.741,5.741,0,0,1-.451,1.29,4.275,4.275,0,0,1-.748,1.078A3.351,3.351,0,0,1,88.9-2.6,3.148,3.148,0,0,1,87.577-2.327Zm.067-.93a1.865,1.865,0,0,0,.795-.175,2.2,2.2,0,0,0,.687-.509,3.148,3.148,0,0,0,.535-.815,4.856,4.856,0,0,0,.35-1.095A6.772,6.772,0,0,0,90.136-7.2a2.386,2.386,0,0,0-.155-.849,1.516,1.516,0,0,0-.5-.677,1.457,1.457,0,0,0-.916-.266,1.964,1.964,0,0,0-.872.2,2.306,2.306,0,0,0-.717.552,3.311,3.311,0,0,0-.535.842,5,5,0,0,0-.337,1.064,6.1,6.1,0,0,0-.118,1.219,2,2,0,0,0,.431,1.371A1.549,1.549,0,0,0,87.644-3.257Zm4.688.822L93.9-9.818h.916L94.643-8.39h.067q.283-.384.606-.744a2.816,2.816,0,0,1,.738-.589,1.937,1.937,0,0,1,.953-.229,3.661,3.661,0,0,1,.411.024,2.271,2.271,0,0,1,.391.077l-.242,1a3.536,3.536,0,0,0-.354-.061,3.025,3.025,0,0,0-.354-.02,1.8,1.8,0,0,0-.95.266,2.921,2.921,0,0,0-.785.711,4.607,4.607,0,0,0-.586.99,5.782,5.782,0,0,0-.36,1.111l-.721,3.415Zm9.033,0,1.569-7.382h1.125L102.49-2.435Zm2.512-8.676a.65.65,0,0,1-.448-.158.567.567,0,0,1-.178-.448.977.977,0,0,1,.091-.418.762.762,0,0,1,.263-.313.726.726,0,0,1,.421-.118.588.588,0,0,1,.445.155.6.6,0,0,1,.148.431.87.87,0,0,1-.229.633A.7.7,0,0,1,103.877-11.111Zm.923,8.676,1.583-7.416h.99L107.2-8.43h.013a6.121,6.121,0,0,1,.616-.711,3.306,3.306,0,0,1,.842-.606,2.373,2.373,0,0,1,1.095-.246,2.194,2.194,0,0,1,1.017.219,1.533,1.533,0,0,1,.653.633,2.039,2.039,0,0,1,.229,1,4.248,4.248,0,0,1-.047.626q-.047.317-.1.566l-.983,4.513H109.34l1-4.661q.061-.3.1-.519a2.392,2.392,0,0,0,.037-.4.938.938,0,0,0-.256-.714,1.058,1.058,0,0,0-.754-.242,1.987,1.987,0,0,0-1.037.337,3.317,3.317,0,0,0-1.01,1.061,5.807,5.807,0,0,0-.721,1.889L106-2.435Zm15.9.135a3.683,3.683,0,0,1-2.725-.98A3.7,3.7,0,0,1,117-6.019a8.215,8.215,0,0,1,.249-2.058,6.847,6.847,0,0,1,.717-1.765,5.592,5.592,0,0,1,1.125-1.377,4.835,4.835,0,0,1,1.468-.892,4.813,4.813,0,0,1,1.748-.313,6.987,6.987,0,0,1,1.556.155,7.2,7.2,0,0,1,1.287.424l-.438,1a7.525,7.525,0,0,0-1.118-.4,4.884,4.884,0,0,0-1.3-.165,3.443,3.443,0,0,0-1.613.387,3.955,3.955,0,0,0-1.3,1.1,5.371,5.371,0,0,0-.866,1.687,7.044,7.044,0,0,0-.31,2.145,3.44,3.44,0,0,0,.286,1.438,2.223,2.223,0,0,0,.866.99,2.723,2.723,0,0,0,1.462.36,5.676,5.676,0,0,0,1.01-.084,6.1,6.1,0,0,0,.795-.192l.653-3h-2.021l.216-1h3.159l-1.037,4.762a9.368,9.368,0,0,1-1.33.374A7.755,7.755,0,0,1,120.7-2.3Zm5.052-.135,1.569-7.382h.916l-.175,1.428h.067q.283-.384.606-.744a2.816,2.816,0,0,1,.738-.589,1.937,1.937,0,0,1,.953-.229,3.661,3.661,0,0,1,.411.024,2.27,2.27,0,0,1,.391.077l-.242,1a3.536,3.536,0,0,0-.354-.061,3.025,3.025,0,0,0-.354-.02,1.8,1.8,0,0,0-.95.266,2.921,2.921,0,0,0-.785.711,4.608,4.608,0,0,0-.586.99,5.78,5.78,0,0,0-.36,1.111l-.721,3.415Zm8.406.135a2.894,2.894,0,0,1-1.428-.333,2.238,2.238,0,0,1-.919-.956,3.23,3.23,0,0,1-.32-1.492,6.106,6.106,0,0,1,.259-1.761,5.556,5.556,0,0,1,.744-1.569,3.854,3.854,0,0,1,1.169-1.121,2.881,2.881,0,0,1,1.532-.418,2.3,2.3,0,0,1,1.542.455,1.566,1.566,0,0,1,.525,1.249,2.1,2.1,0,0,1-.259,1.031,2.315,2.315,0,0,1-.795.818,4.281,4.281,0,0,1-1.354.539,8.567,8.567,0,0,1-1.937.192h-.256q-.013.121-.024.269t-.01.276a2.067,2.067,0,0,0,.431,1.391,1.612,1.612,0,0,0,1.293.5,3.292,3.292,0,0,0,1.007-.152,7.733,7.733,0,0,0,.994-.4v.963a7.068,7.068,0,0,1-1,.374A4.353,4.353,0,0,1,134.161-2.3Zm-1.334-4.284h.162a7.7,7.7,0,0,0,1.583-.152,2.753,2.753,0,0,0,1.159-.5,1.122,1.122,0,0,0,.438-.926.816.816,0,0,0-.256-.62,1.1,1.1,0,0,0-.781-.242,1.694,1.694,0,0,0-.916.286,2.837,2.837,0,0,0-.818.832A4.286,4.286,0,0,0,132.827-6.584Zm8.2,4.284a2.894,2.894,0,0,1-1.428-.333,2.238,2.238,0,0,1-.919-.956,3.23,3.23,0,0,1-.32-1.492,6.106,6.106,0,0,1,.259-1.761,5.556,5.556,0,0,1,.744-1.569,3.854,3.854,0,0,1,1.169-1.121,2.881,2.881,0,0,1,1.532-.418,2.3,2.3,0,0,1,1.542.455,1.566,1.566,0,0,1,.525,1.249,2.1,2.1,0,0,1-.259,1.031,2.315,2.315,0,0,1-.795.818,4.282,4.282,0,0,1-1.354.539,8.567,8.567,0,0,1-1.937.192h-.256q-.013.121-.024.269t-.01.276a2.067,2.067,0,0,0,.431,1.391,1.612,1.612,0,0,0,1.293.5,3.293,3.293,0,0,0,1.007-.152,7.733,7.733,0,0,0,.994-.4v.963a7.068,7.068,0,0,1-1,.374A4.354,4.354,0,0,1,141.032-2.3ZM139.7-6.584h.162a7.7,7.7,0,0,0,1.583-.152,2.753,2.753,0,0,0,1.159-.5,1.122,1.122,0,0,0,.438-.926.816.816,0,0,0-.256-.62A1.1,1.1,0,0,0,142-9.023a1.693,1.693,0,0,0-.916.286,2.837,2.837,0,0,0-.818.832A4.286,4.286,0,0,0,139.7-6.584Zm5.2,4.149,1.583-7.416h.99L147.3-8.43h.013a6.121,6.121,0,0,1,.616-.711,3.306,3.306,0,0,1,.842-.606,2.373,2.373,0,0,1,1.095-.246,2.194,2.194,0,0,1,1.017.219,1.533,1.533,0,0,1,.653.633,2.039,2.039,0,0,1,.229,1,4.246,4.246,0,0,1-.047.626q-.047.317-.1.566l-.983,4.513h-1.192l1-4.661q.061-.3.1-.519a2.392,2.392,0,0,0,.037-.4.938.938,0,0,0-.256-.714,1.058,1.058,0,0,0-.754-.242,1.987,1.987,0,0,0-1.037.337,3.317,3.317,0,0,0-1.01,1.061,5.807,5.807,0,0,0-.721,1.889L146.1-2.435Zm13.31,0,1.873-8.837h-2.748l.216-1.01h6.641l-.2,1.01h-2.748l-1.879,8.837Zm8.11.135a2.894,2.894,0,0,1-1.428-.333,2.238,2.238,0,0,1-.919-.956,3.23,3.23,0,0,1-.32-1.492,6.106,6.106,0,0,1,.259-1.761,5.556,5.556,0,0,1,.744-1.569,3.854,3.854,0,0,1,1.169-1.121,2.881,2.881,0,0,1,1.532-.418A2.3,2.3,0,0,1,168.9-9.5a1.566,1.566,0,0,1,.525,1.249,2.1,2.1,0,0,1-.259,1.031,2.315,2.315,0,0,1-.795.818,4.281,4.281,0,0,1-1.354.539,8.567,8.567,0,0,1-1.937.192h-.256q-.013.121-.024.269t-.01.276a2.067,2.067,0,0,0,.431,1.391,1.612,1.612,0,0,0,1.293.5,3.292,3.292,0,0,0,1.007-.152,7.733,7.733,0,0,0,.994-.4v.963a7.068,7.068,0,0,1-1,.374A4.353,4.353,0,0,1,166.317-2.3Zm-1.334-4.284h.162a7.7,7.7,0,0,0,1.583-.152,2.753,2.753,0,0,0,1.159-.5,1.122,1.122,0,0,0,.438-.926.816.816,0,0,0-.256-.62,1.1,1.1,0,0,0-.781-.242,1.694,1.694,0,0,0-.916.286,2.837,2.837,0,0,0-.818.832A4.286,4.286,0,0,0,164.984-6.584ZM173.248-2.3a3.134,3.134,0,0,1-1.438-.313,2.226,2.226,0,0,1-.956-.926,3.1,3.1,0,0,1-.34-1.522,6.575,6.575,0,0,1,.172-1.516,5.458,5.458,0,0,1,.5-1.34,4.367,4.367,0,0,1,.8-1.071,3.433,3.433,0,0,1,1.074-.711,3.374,3.374,0,0,1,1.317-.253,5.057,5.057,0,0,1,.953.091,4.014,4.014,0,0,1,.859.259l-.317.943a4.2,4.2,0,0,0-.667-.242,3.029,3.029,0,0,0-.822-.108,2.08,2.08,0,0,0-1.115.31,2.782,2.782,0,0,0-.862.859,4.412,4.412,0,0,0-.556,1.256,5.645,5.645,0,0,0-.2,1.509,2.23,2.23,0,0,0,.2.987,1.457,1.457,0,0,0,.583.637,1.779,1.779,0,0,0,.913.222,3.111,3.111,0,0,0,.926-.135,7.377,7.377,0,0,0,.852-.323v.956a4.092,4.092,0,0,1-.845.31A4.2,4.2,0,0,1,173.248-2.3Zm3.233-.135L178.7-12.916h1.118l-.593,2.721q-.054.29-.131.6t-.158.613q-.081.306-.162.6h.067a6.1,6.1,0,0,1,.623-.714,3.284,3.284,0,0,1,.842-.6,2.385,2.385,0,0,1,1.088-.242,2.185,2.185,0,0,1,.994.209,1.465,1.465,0,0,1,.64.623,2.157,2.157,0,0,1,.226,1.041,3.653,3.653,0,0,1-.04.535q-.04.273-.1.569l-.97,4.526h-1.125L182-7.083q.067-.3.094-.519a3.091,3.091,0,0,0,.027-.377,1.089,1.089,0,0,0-.246-.761,1.015,1.015,0,0,0-.785-.269,2.041,2.041,0,0,0-1.061.34A3.317,3.317,0,0,0,179.011-7.6a5.746,5.746,0,0,0-.717,1.91l-.687,3.253Zm15.64.135a3.635,3.635,0,0,1-1.876-.458,3.031,3.031,0,0,1-1.2-1.3,4.5,4.5,0,0,1-.418-2.011,7.932,7.932,0,0,1,.216-1.829,7.263,7.263,0,0,1,.643-1.724,5.806,5.806,0,0,1,1.068-1.441,4.78,4.78,0,0,1,1.492-.994,4.818,4.818,0,0,1,1.91-.364,5.7,5.7,0,0,1,1.283.135,4.365,4.365,0,0,1,1.095.411l-.451.95a4.544,4.544,0,0,0-.859-.347,3.777,3.777,0,0,0-1.068-.138,3.561,3.561,0,0,0-1.489.3,3.665,3.665,0,0,0-1.155.822,4.672,4.672,0,0,0-.822,1.2A6.486,6.486,0,0,0,190-7.645a7.307,7.307,0,0,0-.165,1.546,3,3,0,0,0,.657,2.044,2.293,2.293,0,0,0,1.822.751,5.544,5.544,0,0,0,1.135-.115,9.217,9.217,0,0,0,1.068-.29v1a7.616,7.616,0,0,1-1.081.3A6.8,6.8,0,0,1,192.122-2.3Zm7.012-.027a2.921,2.921,0,0,1-1.462-.347,2.323,2.323,0,0,1-.94-.983,3.257,3.257,0,0,1-.327-1.505,6.244,6.244,0,0,1,.155-1.384,5.744,5.744,0,0,1,.458-1.293,4.345,4.345,0,0,1,.751-1.078,3.316,3.316,0,0,1,1.034-.734,3.125,3.125,0,0,1,1.307-.266,2.931,2.931,0,0,1,1.472.347,2.324,2.324,0,0,1,.936.987,3.294,3.294,0,0,1,.327,1.516,6.271,6.271,0,0,1-.152,1.367,5.741,5.741,0,0,1-.451,1.29,4.275,4.275,0,0,1-.748,1.078,3.351,3.351,0,0,1-1.037.738A3.148,3.148,0,0,1,199.134-2.327Zm.067-.93A1.865,1.865,0,0,0,200-3.432a2.2,2.2,0,0,0,.687-.509,3.147,3.147,0,0,0,.535-.815,4.856,4.856,0,0,0,.35-1.095,6.772,6.772,0,0,0,.125-1.347,2.387,2.387,0,0,0-.155-.849,1.516,1.516,0,0,0-.5-.677,1.457,1.457,0,0,0-.916-.266,1.964,1.964,0,0,0-.872.2,2.305,2.305,0,0,0-.717.552A3.312,3.312,0,0,0,198-7.4a5.005,5.005,0,0,0-.337,1.064,6.1,6.1,0,0,0-.118,1.219,2,2,0,0,0,.431,1.371A1.549,1.549,0,0,0,199.2-3.257Zm4.688.822,1.569-7.382h.916L206.2-8.39h.067a5.931,5.931,0,0,1,.586-.711,3.19,3.19,0,0,1,.8-.606,2.139,2.139,0,0,1,1.034-.246,1.509,1.509,0,0,1,1.185.451,2.058,2.058,0,0,1,.471,1.233h.047a5.361,5.361,0,0,1,.647-.8,3.323,3.323,0,0,1,.859-.637,2.273,2.273,0,0,1,1.061-.249,1.786,1.786,0,0,1,1.32.465,1.824,1.824,0,0,1,.465,1.347,4.622,4.622,0,0,1-.037.6,5.138,5.138,0,0,1-.111.579l-.956,4.526H212.5l1-4.648q.061-.3.091-.525a3.145,3.145,0,0,0,.03-.424,1.012,1.012,0,0,0-.242-.714.971.971,0,0,0-.748-.263,1.632,1.632,0,0,0-.741.2,2.658,2.658,0,0,0-.744.589,4.114,4.114,0,0,0-.65.994,6.312,6.312,0,0,0-.465,1.408l-.721,3.388h-1.118l.983-4.627q.061-.31.091-.535a2.971,2.971,0,0,0,.03-.387,1.156,1.156,0,0,0-.222-.751.886.886,0,0,0-.727-.273,1.7,1.7,0,0,0-.744.189,2.5,2.5,0,0,0-.751.593,4.393,4.393,0,0,0-.667,1.031,6.479,6.479,0,0,0-.485,1.509l-.687,3.253Zm11.336,3.3,2.256-10.683h.916l-.182,1.435h.047a5.993,5.993,0,0,1,.7-.771,3.3,3.3,0,0,1,.835-.569,2.289,2.289,0,0,1,.994-.216,1.932,1.932,0,0,1,1.058.286,1.885,1.885,0,0,1,.7.849,3.412,3.412,0,0,1,.253,1.4,7.477,7.477,0,0,1-.158,1.546,6.314,6.314,0,0,1-.461,1.394,4.6,4.6,0,0,1-.744,1.132,3.255,3.255,0,0,1-1.007.761,2.831,2.831,0,0,1-1.246.273,1.991,1.991,0,0,1-.892-.185,1.9,1.9,0,0,1-.626-.488,2.6,2.6,0,0,1-.4-.653h-.061q-.027.249-.084.65t-.118.67L216.33.865Zm3.88-4.1a1.655,1.655,0,0,0,.866-.236,2.539,2.539,0,0,0,.707-.643,4.035,4.035,0,0,0,.532-.946,5.988,5.988,0,0,0,.333-1.145,6.625,6.625,0,0,0,.115-1.233,1.879,1.879,0,0,0-.313-1.179,1.115,1.115,0,0,0-.933-.4,1.5,1.5,0,0,0-.653.158,2.614,2.614,0,0,0-.64.445,4.034,4.034,0,0,0-.579.677,4.789,4.789,0,0,0-.468.862,5.671,5.671,0,0,0-.313,1,5.045,5.045,0,0,0-.115,1.078A1.7,1.7,0,0,0,218-3.658,1.36,1.36,0,0,0,219.105-3.23Zm7.052.93a1.9,1.9,0,0,1-1.051-.29,1.884,1.884,0,0,1-.7-.855,3.419,3.419,0,0,1-.249-1.381,7.048,7.048,0,0,1,.172-1.569,6.41,6.41,0,0,1,.488-1.4,4.7,4.7,0,0,1,.765-1.132,3.339,3.339,0,0,1,1.007-.754,2.741,2.741,0,0,1,1.206-.269,1.871,1.871,0,0,1,.866.189,1.87,1.87,0,0,1,.613.5,2.647,2.647,0,0,1,.387.65h.067l.431-1.2h.855l-1.563,7.382h-.9l.2-1.428H228.7a5.509,5.509,0,0,1-.694.761,3.5,3.5,0,0,1-.855.579A2.281,2.281,0,0,1,226.158-2.3Zm.364-.93a1.7,1.7,0,0,0,1.027-.381,3.758,3.758,0,0,0,.916-1.031,5.28,5.28,0,0,0,.623-1.465,4.867,4.867,0,0,0,.145-.731,5.664,5.664,0,0,0,.037-.623,1.662,1.662,0,0,0-.367-1.121,1.249,1.249,0,0,0-1-.428,1.692,1.692,0,0,0-.849.226,2.5,2.5,0,0,0-.717.626,4.078,4.078,0,0,0-.549.93,5.718,5.718,0,0,0-.354,1.148,6.441,6.441,0,0,0-.125,1.273,1.866,1.866,0,0,0,.317,1.175A1.076,1.076,0,0,0,226.521-3.23Zm5.112.795,1.583-7.416h.99l-.175,1.421h.013a6.123,6.123,0,0,1,.616-.711,3.306,3.306,0,0,1,.842-.606,2.373,2.373,0,0,1,1.095-.246,2.194,2.194,0,0,1,1.017.219,1.533,1.533,0,0,1,.653.633,2.039,2.039,0,0,1,.229,1,4.248,4.248,0,0,1-.047.626q-.047.317-.1.566l-.983,4.513h-1.192l1-4.661q.061-.3.1-.519a2.394,2.394,0,0,0,.037-.4.938.938,0,0,0-.256-.714,1.058,1.058,0,0,0-.754-.242,1.987,1.987,0,0,0-1.037.337,3.317,3.317,0,0,0-1.01,1.061,5.808,5.808,0,0,0-.721,1.889l-.694,3.253Zm8,0L241.2-9.818h1.125l-1.569,7.382Zm2.512-8.676a.65.65,0,0,1-.448-.158.567.567,0,0,1-.178-.448.977.977,0,0,1,.091-.418.762.762,0,0,1,.263-.313.726.726,0,0,1,.421-.118.588.588,0,0,1,.445.155.6.6,0,0,1,.148.431.87.87,0,0,1-.229.633A.7.7,0,0,1,242.141-11.111Zm3.927,8.81a2.894,2.894,0,0,1-1.428-.333,2.238,2.238,0,0,1-.919-.956,3.231,3.231,0,0,1-.32-1.492,6.106,6.106,0,0,1,.259-1.761,5.555,5.555,0,0,1,.744-1.569,3.854,3.854,0,0,1,1.169-1.121,2.881,2.881,0,0,1,1.532-.418,2.3,2.3,0,0,1,1.542.455,1.566,1.566,0,0,1,.525,1.249,2.1,2.1,0,0,1-.259,1.031,2.315,2.315,0,0,1-.795.818,4.282,4.282,0,0,1-1.354.539,8.567,8.567,0,0,1-1.937.192h-.256q-.013.121-.024.269t-.01.276a2.067,2.067,0,0,0,.431,1.391,1.612,1.612,0,0,0,1.293.5,3.293,3.293,0,0,0,1.007-.152,7.734,7.734,0,0,0,.994-.4v.963a7.068,7.068,0,0,1-1,.374A4.353,4.353,0,0,1,246.068-2.3Zm-1.334-4.284h.162a7.7,7.7,0,0,0,1.583-.152,2.753,2.753,0,0,0,1.159-.5,1.122,1.122,0,0,0,.438-.926.816.816,0,0,0-.256-.62,1.1,1.1,0,0,0-.781-.242,1.694,1.694,0,0,0-.916.286,2.838,2.838,0,0,0-.818.832A4.286,4.286,0,0,0,244.735-6.584ZM251.74-2.3a4.641,4.641,0,0,1-1.182-.135,4.1,4.1,0,0,1-.886-.337V-3.809a4.766,4.766,0,0,0,.906.4,3.449,3.449,0,0,0,1.128.189,2.542,2.542,0,0,0,.953-.155,1.254,1.254,0,0,0,.573-.428,1.078,1.078,0,0,0,.192-.637.973.973,0,0,0-.125-.5,1.424,1.424,0,0,0-.4-.414,8.154,8.154,0,0,0-.744-.465,5.8,5.8,0,0,1-.876-.586,2.143,2.143,0,0,1-.542-.65,1.754,1.754,0,0,1-.185-.825,1.933,1.933,0,0,1,.31-1.1,2.028,2.028,0,0,1,.872-.721,3.153,3.153,0,0,1,1.317-.256,4.754,4.754,0,0,1,1.233.152,5.757,5.757,0,0,1,.977.347l-.364.9a5.992,5.992,0,0,0-.8-.31,3.5,3.5,0,0,0-1.044-.141,1.6,1.6,0,0,0-1.007.29.937.937,0,0,0-.374.781.934.934,0,0,0,.111.458,1.286,1.286,0,0,0,.387.4,7.592,7.592,0,0,0,.754.461,8.619,8.619,0,0,1,.839.549,2.276,2.276,0,0,1,.593.64,1.677,1.677,0,0,1,.219.886,2.112,2.112,0,0,1-.344,1.223,2.118,2.118,0,0,1-.98.761A3.978,3.978,0,0,1,251.74-2.3Z" transform="translate(287.469 3285.982)" fill="#5cc259"/>
    <g id="Gruppe_343" data-name="Gruppe 343" transform="translate(288 3234.286)">
      <g id="Gruppe_3" data-name="Gruppe 3" transform="translate(0 0)" clip-path="url(#clip-path)">
        <path id="Pfad_7" data-name="Pfad 7" d="M701.735,11.575V7.448h19.392v4.164c-6.5,0-12.909-.036-19.392-.036" transform="translate(-467.116 -4.958)" fill="#4ebd38"/>
        <path id="Pfad_8" data-name="Pfad 8" d="M701.735,75.3V71.113c6.458,0,12.911.024,19.392.024V75.3Z" transform="translate(-467.116 -47.337)" fill="#4ebd38"/>
        <path id="Pfad_9" data-name="Pfad 9" d="M0,2.49V6.654H8.859V27.965h4.409V6.654h8.982V2.49ZM114.122,13.8h1.715V2.49h4.449V27.965h-4.449V17.953h-1.715v.009H101.1v10H96.731V2.49H101.1V13.8h13.023ZM54.343,27.965H49.281L40.258,9.8,34.489,21.543,31.3,27.965H26.378L40.258,0ZM60.8,15.228a12.406,12.406,0,0,0,1.021,5,12.875,12.875,0,0,0,6.858,6.838,12.652,12.652,0,0,0,5.062,1.02,12.076,12.076,0,0,0,6.492-1.8,15.341,15.341,0,0,0,4.858-4.859l-3.184-3.184a12.7,12.7,0,0,1-1.592,2.225,10.886,10.886,0,0,1-1.98,1.735,9.73,9.73,0,0,1-2.245,1.143,7.056,7.056,0,0,1-2.347.408,8.352,8.352,0,0,1-3.327-.674,8.639,8.639,0,0,1-2.735-1.837,8.985,8.985,0,0,1-1.857-2.714,8.028,8.028,0,0,1,0-6.532,9.26,9.26,0,0,1,1.857-2.735,8.756,8.756,0,0,1,2.735-1.878,8.248,8.248,0,0,1,3.367-.694,7.175,7.175,0,0,1,2.552.47,8.973,8.973,0,0,1,2.348,1.326,11.6,11.6,0,0,1,2,2,12.153,12.153,0,0,1,1.51,2.491l3.552-2.368a14.472,14.472,0,0,0-2.062-3.347A13.724,13.724,0,0,0,77.5,2.98a11.563,11.563,0,0,0-3.756-.613,12.658,12.658,0,0,0-5.062,1.021,12.879,12.879,0,0,0-6.858,6.838,12.408,12.408,0,0,0-1.021,5m80.109,12.737H145.4V18.9L156.5,2.49h-5.43l-8,11.553L135.316,2.49h-5.43l11.023,16.615Zm21.684-12.737a12.625,12.625,0,0,0,1,5,12.8,12.8,0,0,0,2.735,4.083,13.022,13.022,0,0,0,4.1,2.756,13.169,13.169,0,0,0,10.166,0,12.87,12.87,0,0,0,6.858-6.838,12.753,12.753,0,0,0,0-10A12.873,12.873,0,0,0,180.6,3.388a13.165,13.165,0,0,0-10.166,0,13.029,13.029,0,0,0-4.1,2.756,12.8,12.8,0,0,0-2.735,4.082,12.628,12.628,0,0,0-1,5m4.368.04A8.126,8.126,0,0,1,167.634,12a8.781,8.781,0,0,1,1.858-2.735,9.074,9.074,0,0,1,2.735-1.878,8.273,8.273,0,0,1,6.634,0A9.026,9.026,0,0,1,183.5,12a8.032,8.032,0,0,1,0,6.532,8.635,8.635,0,0,1-1.9,2.714,9.133,9.133,0,0,1-2.776,1.837,8.25,8.25,0,0,1-3.286.674,8.349,8.349,0,0,1-3.327-.674,8.607,8.607,0,0,1-4.573-4.551A8.13,8.13,0,0,1,166.961,15.268Zm50.709,12.7h5.552V2.49h-4.45V21.963L205.219,2.49h-5.756V27.965h4.368V8.41l13.839,19.555" transform="translate(0 0)" fill="#fff"/>
        <path id="Pfad_10" data-name="Pfad 10" d="M720.881,41.272v4.164h-17.86v-.008h-1.286V41.272h19.147Z" transform="translate(-467.116 -27.473)" fill="#4ebd38"/>
        <path id="Pfad_11" data-name="Pfad 11" d="M373.816,46.966V44.948h7.439a3.038,3.038,0,0,1,1.236.257,3.127,3.127,0,0,1,1.028.732,3.609,3.609,0,0,1,.712,1.137,3.911,3.911,0,0,1,.267,1.474,3.4,3.4,0,0,1-.287,1.385,3.64,3.64,0,0,1-.791,1.148,3.828,3.828,0,0,1-1.168.781,3.532,3.532,0,0,1-1.415.287l-3.68,0a1.85,1.85,0,0,0-1.019.546,1.485,1.485,0,0,0-.346,1v1.583H384.3v2.018H373.638v-3.6a3.4,3.4,0,0,1,.287-1.385,3.808,3.808,0,0,1,.771-1.147,3.606,3.606,0,0,1,1.138-.782,3.448,3.448,0,0,1,1.4-.287V50.1a37.243,37.243,0,0,0,3.95-.038,3.011,3.011,0,0,0,.8-.484,1.531,1.531,0,0,0,.337-1.029,1.712,1.712,0,0,0-.376-1.127,1.454,1.454,0,0,0-1.187-.456h-6.945" transform="translate(-248.715 -29.92)" fill="#29459f" fill-rule="evenodd"/>
        <path id="Pfad_12" data-name="Pfad 12" d="M372.529,46.572V44.124H380.4a3.548,3.548,0,0,1,.723.074h0a3.438,3.438,0,0,1,.687.219,3.536,3.536,0,0,1,.625.356,3.636,3.636,0,0,1,.542.476h0a3.806,3.806,0,0,1,.451.587l0,0a4.429,4.429,0,0,1,.345.682A4.033,4.033,0,0,1,384,47.3a4.842,4.842,0,0,1,.075.85,3.93,3.93,0,0,1-.082.8,3.793,3.793,0,0,1-.242.76h0a4.1,4.1,0,0,1-.381.685,4.034,4.034,0,0,1-.5.6,4.246,4.246,0,0,1-.606.493,4.326,4.326,0,0,1-.693.377h0a3.91,3.91,0,0,1-.769.242h0a4.088,4.088,0,0,1-.813.082v0l-3.626,0a1.99,1.99,0,0,0-.452.167,1.024,1.024,0,0,0-.294.228h0a.992.992,0,0,0-.182.314h0a1.258,1.258,0,0,0-.062.407v1.153h8.508v2.879H372.351V53.3a3.934,3.934,0,0,1,.082-.8,3.763,3.763,0,0,1,.242-.76,4.466,4.466,0,0,1,.373-.679,4.24,4.24,0,0,1,.485-.6,4.056,4.056,0,0,1,1.271-.874h0a3.754,3.754,0,0,1,.762-.242,4.094,4.094,0,0,1,.813-.082h.43v.016l.273,0a30.541,30.541,0,0,0,3.08-.017h0a3.448,3.448,0,0,0,.422-.219,1.415,1.415,0,0,0,.215-.146.9.9,0,0,0,.17-.309,1.422,1.422,0,0,0,.063-.441,1.549,1.549,0,0,0-.07-.484,1.156,1.156,0,0,0-.206-.37.722.722,0,0,0-.307-.216h0A1.555,1.555,0,0,0,379.9,47h-7.375v-.43" transform="translate(-247.859 -29.371)" fill="#4ebd38"/>
      </g>
    </g>
  </g>
</svg>
