<svg id="Gruppe_254" data-name="Gruppe 254" xmlns="http://www.w3.org/2000/svg" xmlns:xlink="http://www.w3.org/1999/xlink" width="254.725" height="28.166" viewBox="0 0 254.725 28.166">
  <defs>
    <clipPath id="clip-path">
      <rect id="Rechteck_2" data-name="Rechteck 2" width="254.725" height="28.166" fill="none"/>
    </clipPath>
  </defs>
  <g id="Gruppe_3" data-name="Gruppe 3" transform="translate(0 0)" clip-path="url(#clip-path)">
    <path id="Pfad_7" data-name="Pfad 7" d="M701.735,11.587V7.448h19.446v4.176c-6.516,0-12.945-.037-19.446-.037" transform="translate(-466.456 -4.951)" fill="#4ebd38"/>
    <path id="Pfad_8" data-name="Pfad 8" d="M701.735,75.313v-4.2c6.477,0,12.947.024,19.446.024v4.176Z" transform="translate(-466.456 -47.27)" fill="#4ebd38"/>
    <path id="Pfad_9" data-name="Pfad 9" d="M0,2.5V6.673H8.884v21.37H13.3V6.673h9.007V2.5ZM114.443,13.838h1.72V2.5h4.462V28.043h-4.462V18h-1.72v.009h-13.06v10.03H97V2.5h4.38V13.838h13.06ZM54.5,28.043H49.419L40.372,9.825,34.586,21.6l-3.2,6.44H26.452L40.372,0ZM60.97,15.27a12.441,12.441,0,0,0,1.024,5.014,12.912,12.912,0,0,0,6.877,6.858,12.688,12.688,0,0,0,5.076,1.023,12.11,12.11,0,0,0,6.51-1.8,15.384,15.384,0,0,0,4.871-4.872L82.136,18.3a12.734,12.734,0,0,1-1.6,2.232,10.916,10.916,0,0,1-1.986,1.739A9.758,9.758,0,0,1,76.3,23.417a7.076,7.076,0,0,1-2.354.409,8.376,8.376,0,0,1-3.336-.676,8.664,8.664,0,0,1-2.743-1.842,9.01,9.01,0,0,1-1.862-2.722,8.051,8.051,0,0,1,0-6.551,9.286,9.286,0,0,1,1.862-2.743A8.781,8.781,0,0,1,70.612,7.41a8.272,8.272,0,0,1,3.377-.7,7.2,7.2,0,0,1,2.559.471A9,9,0,0,1,78.9,8.515a11.628,11.628,0,0,1,2.006,2.006,12.187,12.187,0,0,1,1.514,2.5l3.562-2.375a14.513,14.513,0,0,0-2.068-3.357,13.763,13.763,0,0,0-6.2-4.3,11.6,11.6,0,0,0-3.767-.614A12.693,12.693,0,0,0,68.871,3.4a12.915,12.915,0,0,0-6.877,6.857A12.443,12.443,0,0,0,60.97,15.27M141.3,28.043h4.5V18.954L156.944,2.5H151.5l-8.024,11.586L135.7,2.5h-5.445L141.3,19.159ZM163.05,15.27a12.661,12.661,0,0,0,1,5.014,12.837,12.837,0,0,0,2.743,4.094,13.059,13.059,0,0,0,4.114,2.763,13.206,13.206,0,0,0,10.194,0,12.906,12.906,0,0,0,6.877-6.858,12.789,12.789,0,0,0,0-10.03A12.91,12.91,0,0,0,181.1,3.4a13.2,13.2,0,0,0-10.194,0A13.065,13.065,0,0,0,166.8,6.161a12.838,12.838,0,0,0-2.743,4.093,12.663,12.663,0,0,0-1,5.015m4.381.041a8.149,8.149,0,0,1,.675-3.275,8.806,8.806,0,0,1,1.863-2.743,9.1,9.1,0,0,1,2.743-1.883,8.3,8.3,0,0,1,6.653,0,9.051,9.051,0,0,1,4.647,4.626,8.054,8.054,0,0,1,0,6.551,8.659,8.659,0,0,1-1.9,2.722,9.159,9.159,0,0,1-2.784,1.842,8.273,8.273,0,0,1-3.3.676,8.372,8.372,0,0,1-3.336-.676,8.631,8.631,0,0,1-4.586-4.564A8.152,8.152,0,0,1,167.431,15.311Zm50.852,12.732h5.568V2.5h-4.463V22.025L205.8,2.5h-5.772V28.043h4.38V8.433l13.878,19.61" transform="translate(0 0)" fill="#fff"/>
    <path id="Pfad_10" data-name="Pfad 10" d="M720.935,41.272v4.175h-17.91v-.008h-1.29V41.272h19.2Z" transform="translate(-466.456 -27.434)" fill="#4ebd38"/>
    <path id="Pfad_11" data-name="Pfad 11" d="M373.817,46.972V44.948h7.46a3.046,3.046,0,0,1,1.24.258,3.136,3.136,0,0,1,1.031.734,3.619,3.619,0,0,1,.714,1.141,3.922,3.922,0,0,1,.268,1.479,3.413,3.413,0,0,1-.288,1.389,3.65,3.65,0,0,1-.793,1.151,3.839,3.839,0,0,1-1.171.784,3.542,3.542,0,0,1-1.419.288l-3.691,0a1.855,1.855,0,0,0-1.022.548,1.489,1.489,0,0,0-.347,1v1.588h8.532v2.024H373.638V53.718a3.411,3.411,0,0,1,.288-1.389,3.819,3.819,0,0,1,.773-1.151,3.616,3.616,0,0,1,1.141-.784,3.457,3.457,0,0,1,1.409-.288v.007a37.349,37.349,0,0,0,3.961-.038,3.02,3.02,0,0,0,.8-.485,1.535,1.535,0,0,0,.338-1.032,1.717,1.717,0,0,0-.377-1.131,1.458,1.458,0,0,0-1.191-.457h-6.964" transform="translate(-248.364 -29.878)" fill="#29459f" fill-rule="evenodd"/>
    <path id="Pfad_12" data-name="Pfad 12" d="M372.53,46.579V44.124h7.892a3.558,3.558,0,0,1,.725.074h0a3.449,3.449,0,0,1,.689.219,3.546,3.546,0,0,1,.627.357,3.645,3.645,0,0,1,.544.477h0a3.817,3.817,0,0,1,.452.589l0,0a4.441,4.441,0,0,1,.346.684,4.043,4.043,0,0,1,.224.786,4.854,4.854,0,0,1,.075.853,3.941,3.941,0,0,1-.082.8,3.8,3.8,0,0,1-.243.762h0a4.114,4.114,0,0,1-.382.687,4.044,4.044,0,0,1-.5.6,4.257,4.257,0,0,1-.608.495,4.337,4.337,0,0,1-.695.378h0a3.921,3.921,0,0,1-.771.243h0a4.1,4.1,0,0,1-.815.082v0l-3.636,0a2,2,0,0,0-.454.167,1.026,1.026,0,0,0-.294.228h0a1,1,0,0,0-.182.315h0a1.261,1.261,0,0,0-.063.408v1.156h8.532v2.887H372.351V53.325a3.945,3.945,0,0,1,.082-.8,3.773,3.773,0,0,1,.243-.762,4.481,4.481,0,0,1,.375-.681,4.255,4.255,0,0,1,.486-.6,4.068,4.068,0,0,1,1.274-.877h0a3.765,3.765,0,0,1,.764-.243,4.105,4.105,0,0,1,.816-.082h.432V49.3l.274,0a30.627,30.627,0,0,0,3.089-.017h0a3.457,3.457,0,0,0,.423-.22,1.42,1.42,0,0,0,.216-.147.9.9,0,0,0,.17-.309,1.426,1.426,0,0,0,.063-.443,1.554,1.554,0,0,0-.07-.485,1.159,1.159,0,0,0-.207-.371.724.724,0,0,0-.307-.216h0a1.56,1.56,0,0,0-.551-.085h-7.4v-.432" transform="translate(-247.509 -29.33)" fill="#4ebd38"/>
  </g>
</svg>
