<svg xmlns="http://www.w3.org/2000/svg" width="13.932" height="13.932" viewBox="0 0 13.932 13.932">
  <g id="Icon_feather-upload" data-name="Icon feather-upload" transform="translate(-3 -3)">
    <path id="Pfad_322" data-name="Pfad 322" d="M14.842,26.573H5.09A2.092,2.092,0,0,1,3,24.483V21.7a.7.7,0,1,1,1.393,0v2.786a.7.7,0,0,0,.7.7h9.752a.7.7,0,0,0,.7-.7V21.7a.7.7,0,1,1,1.393,0v2.786A2.092,2.092,0,0,1,14.842,26.573Z" transform="translate(0 -9.641)" fill="#fff"/>
    <path id="Pfad_323" data-name="Pfad 323" d="M16.662,7.876a.694.694,0,0,1-.493-.2l-2.99-2.99-2.99,2.99A.7.7,0,0,1,9.2,6.687L12.687,3.2a.7.7,0,0,1,.985,0l3.483,3.483a.7.7,0,0,1-.493,1.189Z" transform="translate(-3.214 0)" fill="#fff"/>
    <path id="Pfad_324" data-name="Pfad 324" d="M17.2,12.752a.7.7,0,0,1-.7-.7V3.7a.7.7,0,0,1,1.393,0v8.359A.7.7,0,0,1,17.2,12.752Z" transform="translate(-7.231 0)" fill="#fff"/>
  </g>
</svg>
